<svg width="49" height="49" viewBox="0 0 49 49" fill="none" xmlns="http://www.w3.org/2000/svg">
<g clip-path="url(#clip0_70_77)">
<path d="M5 17H24V32H5V17Z" fill="#FFC200"/>
<path d="M6.35156 12.6968C4.76026 12.6968 3.23414 13.3289 2.10892 14.4541C0.983704 15.5794 0.351563 17.1055 0.351562 18.6968L0.351563 30.6968C0.351563 32.2881 0.983704 33.8142 2.10892 34.9394C3.23414 36.0646 4.76026 36.6968 6.35156 36.6968H36.3516C37.9429 36.6968 39.469 36.0646 40.5942 34.9394C41.7194 33.8142 42.3516 32.2881 42.3516 30.6968V18.6968C42.3516 17.1055 41.7194 15.5794 40.5942 14.4541C39.469 13.3289 37.9429 12.6968 36.3516 12.6968H6.35156ZM36.3516 15.6968C37.1472 15.6968 37.9103 16.0128 38.4729 16.5755C39.0355 17.1381 39.3516 17.9011 39.3516 18.6968V30.6968C39.3516 31.4924 39.0355 32.2555 38.4729 32.8181C37.9103 33.3807 37.1472 33.6968 36.3516 33.6968H6.35156C5.55591 33.6968 4.79285 33.3807 4.23024 32.8181C3.66763 32.2555 3.35156 31.4924 3.35156 30.6968V18.6968C3.35156 17.9011 3.66763 17.1381 4.23024 16.5755C4.79285 16.0128 5.55591 15.6968 6.35156 15.6968H36.3516ZM48.3516 24.6968C48.3516 25.8903 47.8775 27.0348 47.0335 27.8788C46.1896 28.7227 45.045 29.1968 43.8516 29.1968V20.1968C45.045 20.1968 46.1896 20.6709 47.0335 21.5148C47.8775 22.3587 48.3516 23.5033 48.3516 24.6968Z" fill="black"/>
</g>
<defs>
<clipPath id="clip0_70_77">
<rect width="48" height="48" fill="white" transform="translate(0.351562 0.696777)"/>
</clipPath>
</defs>
</svg>
