<svg width="49" height="49" viewBox="0 0 49 49" fill="none" xmlns="http://www.w3.org/2000/svg">
<path d="M34.7368 10.3076H14.7368V14.3076H34.7368V10.3076Z" fill="white"/>
<path d="M14.7368 18.3076H18.7368V22.3076H14.7368V18.3076Z" fill="white"/>
<path d="M18.7368 26.3076H14.7368V30.3076H18.7368V26.3076Z" fill="white"/>
<path d="M14.7368 34.3076H18.7368V38.3076H14.7368V34.3076Z" fill="white"/>
<path d="M26.7368 18.3076H22.7368V22.3076H26.7368V18.3076Z" fill="white"/>
<path d="M22.7368 26.3076H26.7368V30.3076H22.7368V26.3076Z" fill="white"/>
<path d="M26.7368 34.3076H22.7368V38.3076H26.7368V34.3076Z" fill="white"/>
<path d="M30.7368 18.3076H34.7368V22.3076H30.7368V18.3076Z" fill="white"/>
<path d="M34.7368 26.3076H30.7368V38.3076H34.7368V26.3076Z" fill="white"/>
<path fill-rule="evenodd" clip-rule="evenodd" d="M6.73682 6.30762C6.73682 4.09848 8.52768 2.30762 10.7368 2.30762H38.7368C40.946 2.30762 42.7368 4.09848 42.7368 6.30762V42.3076C42.7368 44.5168 40.946 46.3076 38.7368 46.3076H10.7368C8.52768 46.3076 6.73682 44.5168 6.73682 42.3076V6.30762ZM10.7368 6.30762H38.7368V42.3076H10.7368V6.30762Z" fill="white"/>
</svg>
