<svg width="49" height="49" viewBox="0 0 49 49" fill="none" xmlns="http://www.w3.org/2000/svg">
<path d="M24.8848 31.8218C28.1985 31.8218 30.8848 29.1355 30.8848 25.8218C30.8848 22.5081 28.1985 19.8218 24.8848 19.8218C21.5711 19.8218 18.8848 22.5081 18.8848 25.8218C18.8848 29.1355 21.5711 31.8218 24.8848 31.8218Z" fill="white"/>
<path d="M41.3848 13.8218H35.8535C35.5723 13.8218 35.2235 13.6399 34.9516 13.353L32.5198 9.5149C32.4813 9.45399 32.4384 9.39602 32.3913 9.34146C31.5513 8.36178 30.416 7.82178 29.1973 7.82178H20.5723C19.3535 7.82178 18.2182 8.36178 17.3782 9.34146C17.3312 9.39602 17.2882 9.45399 17.2498 9.5149L14.8179 13.3587C14.6098 13.5855 14.3173 13.8274 14.0098 13.8274V13.0774C14.0098 12.6796 13.8517 12.298 13.5704 12.0167C13.2891 11.7354 12.9076 11.5774 12.5098 11.5774H10.2598C9.86194 11.5774 9.48041 11.7354 9.19911 12.0167C8.9178 12.298 8.75977 12.6796 8.75977 13.0774V13.8274H8.38477C7.19167 13.8286 6.0478 14.3031 5.20416 15.1468C4.36051 15.9904 3.88601 17.1343 3.88477 18.3274V36.3218C3.88601 37.5149 4.36051 38.6587 5.20416 39.5024C6.0478 40.346 7.19167 40.8205 8.38477 40.8218H41.3848C42.5779 40.8205 43.7217 40.346 44.5654 39.5024C45.409 38.6587 45.8835 37.5149 45.8848 36.3218V18.3218C45.8835 17.1287 45.409 15.9848 44.5654 15.1412C43.7217 14.2975 42.5779 13.823 41.3848 13.8218ZM24.8848 34.8218C23.1047 34.8218 21.3647 34.2939 19.8846 33.305C18.4046 32.3161 17.251 30.9105 16.5699 29.2659C15.8887 27.6214 15.7104 25.8118 16.0577 24.066C16.405 22.3201 17.2621 20.7165 18.5208 19.4578C19.7795 18.1991 21.3831 17.342 23.129 16.9947C24.8748 16.6474 26.6844 16.8257 28.3289 17.5069C29.9735 18.1881 31.3791 19.3416 32.368 20.8216C33.3569 22.3017 33.8848 24.0417 33.8848 25.8218C33.882 28.2079 32.9329 30.4955 31.2457 32.1827C29.5585 33.87 27.2709 34.819 24.8848 34.8218Z" fill="white"/>
</svg>
