<svg width="49" height="49" viewBox="0 0 49 49" fill="none" xmlns="http://www.w3.org/2000/svg">
<g clip-path="url(#clip0_70_40)">
<path d="M26.0616 3.71813C25.5475 3.68018 25.0321 3.66116 24.5166 3.66113V0.661133C25.1062 0.66142 25.6956 0.683435 26.2836 0.727133L26.0616 3.71813ZM32.0736 5.06813C31.1119 4.69705 30.1243 4.39724 29.1186 4.17113L29.7756 1.24313C30.9246 1.50113 32.0556 1.84313 33.1536 2.26913L32.0736 5.06813V5.06813ZM36.1836 7.19813C35.7547 6.91208 35.3154 6.6419 34.8666 6.38813L36.3456 3.77813C37.3713 4.35934 38.353 5.0151 39.2826 5.74013L37.4376 8.10713C37.0309 7.78983 36.6126 7.48762 36.1836 7.20113V7.19813ZM41.6856 12.5681C41.0922 11.7251 40.4374 10.9269 39.7266 10.1801L41.8986 8.11013C42.7086 8.96513 43.4586 9.88013 44.1396 10.8401L41.6856 12.5681V12.5681ZM43.9176 16.6241C43.7207 16.1485 43.5065 15.6802 43.2756 15.2201L45.9546 13.8701C46.4844 14.9234 46.9356 16.0144 47.3046 17.1341L44.4546 18.0731C44.2934 17.5837 44.1143 17.1004 43.9176 16.6241V16.6241ZM45.5076 24.1451C45.4833 23.1142 45.3831 22.0864 45.2076 21.0701L48.1626 20.5601C48.3636 21.7181 48.4806 22.8941 48.5106 24.0701L45.5106 24.1451H45.5076ZM45.1146 28.7591C45.2136 28.2491 45.2946 27.7421 45.3576 27.2291L48.3366 27.5981C48.1925 28.7686 47.9619 29.9268 47.6466 31.0631L44.7546 30.2621C44.8926 29.7671 45.0126 29.2661 45.1146 28.7591V28.7591ZM42.2586 35.8961C42.8106 35.0261 43.2966 34.1141 43.7166 33.1721L46.4586 34.3871C45.9786 35.4671 45.4236 36.5051 44.7936 37.5011L42.2586 35.8961ZM39.3666 39.5111C39.7326 39.1451 40.0836 38.7671 40.4166 38.3771L42.6906 40.3361C42.3055 40.7826 41.9042 41.2149 41.4876 41.6321L39.3666 39.5111V39.5111Z" fill="white"/>
<path d="M24.5167 3.66113C21.0633 3.66138 17.6633 4.51327 14.6178 6.14135C11.5723 7.76942 8.97533 10.1234 7.05687 12.9949C5.1384 15.8663 3.95768 19.1666 3.61928 22.6033C3.28088 26.0401 3.79525 29.5072 5.11683 32.6977C6.4384 35.8882 8.5264 38.7035 11.1959 40.8943C13.8653 43.0851 17.0339 44.5838 20.4209 45.2575C23.8079 45.9313 27.3088 45.7594 30.6135 44.7571C33.9182 43.7548 36.9247 41.9529 39.3667 39.5111L41.4877 41.6321C38.6969 44.4245 35.2604 46.4853 31.4828 47.6321C27.7052 48.7789 23.703 48.9762 19.8309 48.2066C15.9588 47.4369 12.3363 45.7241 9.28434 43.2198C6.23242 40.7155 3.8453 37.4971 2.3345 33.8498C0.823696 30.2025 0.235855 26.2388 0.623058 22.3099C1.01026 18.3811 2.36055 14.6084 4.5543 11.3262C6.74804 8.04394 9.7175 5.35346 13.1996 3.49314C16.6817 1.63282 20.5688 0.660087 24.5167 0.661134V3.66113Z" fill="white"/>
<path d="M23.0166 9.66113C23.4144 9.66113 23.796 9.81917 24.0773 10.1005C24.3586 10.3818 24.5166 10.7633 24.5166 11.1611V26.7911L34.2606 32.3591C34.596 32.5615 34.8389 32.8869 34.9375 33.266C35.0361 33.6451 34.9825 34.0477 34.7881 34.3877C34.5938 34.7278 34.2742 34.9784 33.8976 35.0859C33.5209 35.1934 33.1172 35.1494 32.7726 34.9631L22.2726 28.9631C22.043 28.832 21.8522 28.6425 21.7194 28.4139C21.5867 28.1852 21.5167 27.9255 21.5166 27.6611V11.1611C21.5166 10.7633 21.6746 10.3818 21.9559 10.1005C22.2372 9.81917 22.6188 9.66113 23.0166 9.66113V9.66113Z" fill="white"/>
</g>
<defs>
<clipPath id="clip0_70_40">
<rect width="48" height="48" fill="white" transform="translate(0.516602 0.661133)"/>
</clipPath>
</defs>
</svg>
