<svg width="49" height="49" viewBox="0 0 49 49" fill="none" xmlns="http://www.w3.org/2000/svg">
<g clip-path="url(#clip0_71_2)">
<path d="M10.8428 24.6714H6.84277L24.8428 6.67139L42.8428 24.6714H38.8428" stroke="white" stroke-width="2" stroke-linecap="round" stroke-linejoin="round"/>
<path d="M10.8428 24.6714V38.6714C10.8428 39.7323 11.2642 40.7497 12.0143 41.4998C12.7645 42.25 13.7819 42.6714 14.8428 42.6714H34.8428C35.9036 42.6714 36.9211 42.25 37.6712 41.4998C38.4213 40.7497 38.8428 39.7323 38.8428 38.6714V24.6714" stroke="white" stroke-width="2" stroke-linecap="round" stroke-linejoin="round"/>
<path d="M18.8428 42.6714V30.6714C18.8428 29.6105 19.2642 28.5931 20.0143 27.843C20.7645 27.0928 21.7819 26.6714 22.8428 26.6714H26.8428C27.9036 26.6714 28.9211 27.0928 29.6712 27.843C30.4213 28.5931 30.8428 29.6105 30.8428 30.6714V42.6714" stroke="white" stroke-width="2" stroke-linecap="round" stroke-linejoin="round"/>
</g>
<defs>
<clipPath id="clip0_71_2">
<rect width="48" height="48" fill="white" transform="translate(0.842773 0.671387)"/>
</clipPath>
</defs>
</svg>
