<svg width="130" height="43" viewBox="0 0 130 43" fill="none" xmlns="http://www.w3.org/2000/svg">
<rect x="0.5" y="0.5" width="45" height="28" stroke="white"/>
<rect x="14.5" y="14.5" width="45" height="28" stroke="#8D8D8D"/>
<path d="M72.7926 18V11.4545H74.3352V18H72.7926ZM73.5682 10.5256C73.3239 10.5256 73.1136 10.4446 72.9375 10.2827C72.7614 10.1179 72.6733 9.92045 72.6733 9.69034C72.6733 9.45739 72.7614 9.25994 72.9375 9.09801C73.1136 8.93324 73.3239 8.85085 73.5682 8.85085C73.8153 8.85085 74.0256 8.93324 74.1989 9.09801C74.375 9.25994 74.4631 9.45739 74.4631 9.69034C74.4631 9.92045 74.375 10.1179 74.1989 10.2827C74.0256 10.4446 73.8153 10.5256 73.5682 10.5256ZM75.9215 20.4545V11.4545H77.4386V12.5369H77.5281C77.6076 12.3778 77.7198 12.2088 77.8647 12.0298C78.0096 11.848 78.2056 11.6932 78.4528 11.5653C78.6999 11.4347 79.0153 11.3693 79.3988 11.3693C79.9045 11.3693 80.3604 11.4986 80.7667 11.7571C81.1758 12.0128 81.4996 12.392 81.7383 12.8949C81.9798 13.3949 82.1005 14.0085 82.1005 14.7358C82.1005 15.4545 81.9826 16.0653 81.7468 16.5682C81.511 17.071 81.19 17.4545 80.7837 17.7188C80.3775 17.983 79.9173 18.1151 79.4031 18.1151C79.0281 18.1151 78.717 18.0526 78.4698 17.9276C78.2227 17.8026 78.0238 17.652 77.8732 17.4759C77.7255 17.2969 77.6104 17.1278 77.5281 16.9688H77.4641V20.4545H75.9215ZM77.4343 14.7273C77.4343 15.1506 77.494 15.5213 77.6133 15.8395C77.7354 16.1577 77.9102 16.4062 78.1374 16.5852C78.3675 16.7614 78.646 16.8494 78.9727 16.8494C79.3136 16.8494 79.5991 16.7585 79.8292 16.5767C80.0593 16.392 80.2326 16.1406 80.3491 15.8224C80.4684 15.5014 80.5281 15.1364 80.5281 14.7273C80.5281 14.321 80.4698 13.9602 80.3533 13.6449C80.2369 13.3295 80.0636 13.0824 79.8335 12.9034C79.6033 12.7244 79.3164 12.6349 78.9727 12.6349C78.6431 12.6349 78.3633 12.7216 78.1332 12.8949C77.9031 13.0682 77.7283 13.3111 77.609 13.6236C77.4925 13.9361 77.4343 14.304 77.4343 14.7273ZM84.9641 14.1648V18H83.4215V9.27273H84.93V12.5668H85.0067C85.1602 12.1974 85.3974 11.9062 85.7184 11.6932C86.0423 11.4773 86.4542 11.3693 86.9542 11.3693C87.4087 11.3693 87.805 11.4645 88.1431 11.6548C88.4812 11.8452 88.7425 12.1236 88.9272 12.4901C89.1147 12.8565 89.2085 13.304 89.2085 13.8324V18H87.6658V14.071C87.6658 13.6307 87.5522 13.2884 87.3249 13.044C87.1005 12.7969 86.7852 12.6733 86.3789 12.6733C86.1062 12.6733 85.8619 12.733 85.646 12.8523C85.4329 12.9687 85.2653 13.1378 85.1431 13.3594C85.0238 13.581 84.9641 13.8494 84.9641 14.1648ZM93.636 18.1278C92.9968 18.1278 92.4428 17.9872 91.9741 17.706C91.5053 17.4247 91.1417 17.0312 90.8832 16.5256C90.6275 16.0199 90.4996 15.429 90.4996 14.7528C90.4996 14.0767 90.6275 13.4844 90.8832 12.9759C91.1417 12.4673 91.5053 12.0724 91.9741 11.7912C92.4428 11.5099 92.9968 11.3693 93.636 11.3693C94.2752 11.3693 94.8292 11.5099 95.2979 11.7912C95.7667 12.0724 96.1289 12.4673 96.3846 12.9759C96.6431 13.4844 96.7724 14.0767 96.7724 14.7528C96.7724 15.429 96.6431 16.0199 96.3846 16.5256C96.1289 17.0312 95.7667 17.4247 95.2979 17.706C94.8292 17.9872 94.2752 18.1278 93.636 18.1278ZM93.6445 16.892C93.9911 16.892 94.2809 16.7969 94.5138 16.6065C94.7468 16.4134 94.9201 16.1548 95.0337 15.831C95.1502 15.5071 95.2085 15.1463 95.2085 14.7486C95.2085 14.348 95.1502 13.9858 95.0337 13.6619C94.9201 13.3352 94.7468 13.0753 94.5138 12.8821C94.2809 12.6889 93.9911 12.5923 93.6445 12.5923C93.2894 12.5923 92.994 12.6889 92.7582 12.8821C92.5252 13.0753 92.3505 13.3352 92.234 13.6619C92.1204 13.9858 92.0636 14.348 92.0636 14.7486C92.0636 15.1463 92.1204 15.5071 92.234 15.831C92.3505 16.1548 92.5252 16.4134 92.7582 16.6065C92.994 16.7969 93.2894 16.892 93.6445 16.892ZM99.6243 14.1648V18H98.0817V11.4545H99.5561V12.5668H99.6328C99.7834 12.2003 100.023 11.9091 100.353 11.6932C100.685 11.4773 101.096 11.3693 101.585 11.3693C102.036 11.3693 102.43 11.4659 102.765 11.6591C103.103 11.8523 103.364 12.1321 103.549 12.4986C103.737 12.8651 103.829 13.3097 103.826 13.8324V18H102.283V14.071C102.283 13.6335 102.17 13.2912 101.942 13.044C101.718 12.7969 101.407 12.6733 101.009 12.6733C100.739 12.6733 100.499 12.733 100.289 12.8523C100.082 12.9687 99.9183 13.1378 99.799 13.3594C99.6825 13.581 99.6243 13.8494 99.6243 14.1648ZM108.292 18.1278C107.636 18.1278 107.069 17.9915 106.592 17.7188C106.117 17.4432 105.752 17.054 105.496 16.5511C105.241 16.0455 105.113 15.4503 105.113 14.7656C105.113 14.0923 105.241 13.5014 105.496 12.9929C105.755 12.4815 106.116 12.0838 106.579 11.7997C107.042 11.5128 107.586 11.3693 108.211 11.3693C108.614 11.3693 108.995 11.4347 109.353 11.5653C109.714 11.6932 110.032 11.892 110.308 12.1619C110.586 12.4318 110.805 12.7756 110.964 13.1932C111.123 13.608 111.202 14.1023 111.202 14.6761V15.1491H105.837V14.1094H109.724C109.721 13.8139 109.657 13.5511 109.532 13.321C109.407 13.0881 109.232 12.9048 109.008 12.7713C108.786 12.6378 108.528 12.571 108.232 12.571C107.917 12.571 107.64 12.6477 107.401 12.8011C107.163 12.9517 106.977 13.1506 106.843 13.3977C106.712 13.642 106.646 13.9105 106.643 14.2031V15.1108C106.643 15.4915 106.712 15.8182 106.852 16.0909C106.991 16.3608 107.185 16.5682 107.435 16.7131C107.685 16.8551 107.978 16.9261 108.313 16.9261C108.538 16.9261 108.741 16.8949 108.923 16.8324C109.104 16.767 109.262 16.6719 109.396 16.5469C109.529 16.4219 109.63 16.267 109.698 16.0824L111.138 16.2443C111.048 16.625 110.874 16.9574 110.619 17.2415C110.366 17.5227 110.042 17.7415 109.647 17.8977C109.252 18.0511 108.8 18.1278 108.292 18.1278Z" fill="white"/>
<path d="M75.6406 26V34H74.6719V27.0156H74.625L72.6719 28.3125V27.3281L74.6719 26H75.6406ZM77.7539 32.3594V31.5625L81.2695 26H81.8477V27.2344H81.457L78.8008 31.4375V31.5H83.5352V32.3594H77.7539ZM81.5195 34V32.1172V31.7461V26H82.4414V34H81.5195ZM88.1084 36.25V28H88.999V28.9531H89.1084C89.1761 28.849 89.2699 28.7161 89.3896 28.5547C89.512 28.3906 89.6865 28.2448 89.9131 28.1172C90.1423 27.987 90.4521 27.9219 90.8428 27.9219C91.348 27.9219 91.7933 28.0482 92.1787 28.3008C92.5641 28.5534 92.8649 28.9115 93.0811 29.375C93.2972 29.8385 93.4053 30.3854 93.4053 31.0156C93.4053 31.651 93.2972 32.2018 93.0811 32.668C92.8649 33.1315 92.5654 33.4909 92.1826 33.7461C91.7998 33.9987 91.3584 34.125 90.8584 34.125C90.473 34.125 90.1644 34.0612 89.9326 33.9336C89.7008 33.8034 89.5225 33.6562 89.3975 33.4922C89.2725 33.3255 89.1761 33.1875 89.1084 33.0781H89.0303V36.25H88.1084ZM89.0146 31C89.0146 31.4531 89.0811 31.8529 89.2139 32.1992C89.3467 32.543 89.5407 32.8125 89.7959 33.0078C90.0511 33.2005 90.3636 33.2969 90.7334 33.2969C91.1188 33.2969 91.4404 33.1953 91.6982 32.9922C91.9587 32.7865 92.154 32.5104 92.2842 32.1641C92.417 31.8151 92.4834 31.4271 92.4834 31C92.4834 30.5781 92.4183 30.1979 92.2881 29.8594C92.1605 29.5182 91.9665 29.2487 91.7061 29.0508C91.4482 28.8503 91.124 28.75 90.7334 28.75C90.3584 28.75 90.0433 28.8451 89.7881 29.0352C89.5329 29.2227 89.3402 29.4857 89.21 29.8242C89.0798 30.1602 89.0146 30.5521 89.0146 31ZM94.8115 34V28H95.7021V28.9062H95.7646C95.874 28.6094 96.0719 28.3685 96.3584 28.1836C96.6449 27.9987 96.9678 27.9062 97.3271 27.9062C97.3949 27.9062 97.4795 27.9076 97.5811 27.9102C97.6826 27.9128 97.7594 27.9167 97.8115 27.9219V28.8594C97.7803 28.8516 97.7087 28.8398 97.5967 28.8242C97.4873 28.806 97.3714 28.7969 97.249 28.7969C96.9574 28.7969 96.6969 28.8581 96.4678 28.9805C96.2412 29.1003 96.0615 29.2669 95.9287 29.4805C95.7985 29.6914 95.7334 29.9323 95.7334 30.2031V34H94.8115ZM101.159 34.125C100.618 34.125 100.142 33.9961 99.7334 33.7383C99.3271 33.4805 99.0094 33.1198 98.7803 32.6562C98.5537 32.1927 98.4404 31.651 98.4404 31.0312C98.4404 30.4062 98.5537 29.8607 98.7803 29.3945C99.0094 28.9284 99.3271 28.5664 99.7334 28.3086C100.142 28.0508 100.618 27.9219 101.159 27.9219C101.701 27.9219 102.175 28.0508 102.581 28.3086C102.99 28.5664 103.308 28.9284 103.534 29.3945C103.763 29.8607 103.878 30.4062 103.878 31.0312C103.878 31.651 103.763 32.1927 103.534 32.6562C103.308 33.1198 102.99 33.4805 102.581 33.7383C102.175 33.9961 101.701 34.125 101.159 34.125ZM101.159 33.2969C101.571 33.2969 101.909 33.1914 102.175 32.9805C102.44 32.7695 102.637 32.4922 102.765 32.1484C102.892 31.8047 102.956 31.4323 102.956 31.0312C102.956 30.6302 102.892 30.2565 102.765 29.9102C102.637 29.5638 102.44 29.2839 102.175 29.0703C101.909 28.8568 101.571 28.75 101.159 28.75C100.748 28.75 100.409 28.8568 100.144 29.0703C99.8779 29.2839 99.6813 29.5638 99.5537 29.9102C99.4261 30.2565 99.3623 30.6302 99.3623 31.0312C99.3623 31.4323 99.4261 31.8047 99.5537 32.1484C99.6813 32.4922 99.8779 32.7695 100.144 32.9805C100.409 33.1914 100.748 33.2969 101.159 33.2969ZM108.379 34V28H109.27V28.9375H109.348C109.473 28.6172 109.674 28.3685 109.953 28.1914C110.232 28.0117 110.566 27.9219 110.957 27.9219C111.353 27.9219 111.682 28.0117 111.945 28.1914C112.211 28.3685 112.418 28.6172 112.566 28.9375H112.629C112.783 28.6276 113.013 28.3815 113.32 28.1992C113.628 28.0143 113.996 27.9219 114.426 27.9219C114.962 27.9219 115.401 28.0898 115.742 28.4258C116.083 28.7591 116.254 29.2786 116.254 29.9844V34H115.332V29.9844C115.332 29.5417 115.211 29.2253 114.969 29.0352C114.727 28.8451 114.441 28.75 114.113 28.75C113.691 28.75 113.365 28.8776 113.133 29.1328C112.901 29.3854 112.785 29.7057 112.785 30.0937V34H111.848V29.8906C111.848 29.5495 111.737 29.2747 111.516 29.0664C111.294 28.8555 111.009 28.75 110.66 28.75C110.421 28.75 110.197 28.8138 109.988 28.9414C109.783 29.069 109.616 29.2461 109.488 29.4727C109.363 29.6966 109.301 29.9557 109.301 30.25V34H108.379ZM119.705 34.1406C119.325 34.1406 118.98 34.069 118.67 33.9258C118.36 33.7799 118.114 33.5703 117.932 33.2969C117.749 33.0208 117.658 32.6875 117.658 32.2969C117.658 31.9531 117.726 31.6745 117.861 31.4609C117.997 31.2448 118.178 31.0755 118.404 30.9531C118.631 30.8307 118.881 30.7396 119.154 30.6797C119.43 30.6172 119.708 30.5677 119.986 30.5313C120.351 30.4844 120.646 30.4492 120.873 30.4258C121.102 30.3997 121.269 30.3568 121.373 30.2969C121.48 30.237 121.533 30.1328 121.533 29.9844V29.9531C121.533 29.5677 121.428 29.2682 121.217 29.0547C121.008 28.8411 120.692 28.7344 120.268 28.7344C119.827 28.7344 119.482 28.8307 119.232 29.0234C118.982 29.2161 118.807 29.4219 118.705 29.6406L117.83 29.3281C117.986 28.9635 118.195 28.6797 118.455 28.4766C118.718 28.2708 119.005 28.1276 119.314 28.0469C119.627 27.9635 119.934 27.9219 120.236 27.9219C120.429 27.9219 120.65 27.9453 120.9 27.9922C121.153 28.0365 121.396 28.1289 121.631 28.2695C121.868 28.4102 122.064 28.6224 122.221 28.9062C122.377 29.1901 122.455 29.5703 122.455 30.0469V34H121.533V33.1875H121.486C121.424 33.3177 121.32 33.457 121.174 33.6055C121.028 33.7539 120.834 33.8802 120.592 33.9844C120.35 34.0885 120.054 34.1406 119.705 34.1406ZM119.846 33.3125C120.21 33.3125 120.518 33.2409 120.768 33.0977C121.02 32.9544 121.21 32.7695 121.338 32.543C121.468 32.3164 121.533 32.0781 121.533 31.8281V30.9844C121.494 31.0312 121.408 31.0742 121.275 31.1133C121.145 31.1497 120.994 31.1823 120.822 31.2109C120.653 31.237 120.488 31.2604 120.326 31.2812C120.167 31.2995 120.038 31.3151 119.939 31.3281C119.7 31.3594 119.476 31.4102 119.268 31.4805C119.062 31.5482 118.895 31.651 118.768 31.7891C118.643 31.9245 118.58 32.1094 118.58 32.3437C118.58 32.6641 118.699 32.9062 118.936 33.0703C119.175 33.2318 119.479 33.3125 119.846 33.3125ZM124.825 28L126.263 30.4531L127.7 28H128.763L126.825 31L128.763 34H127.7L126.263 31.6719L124.825 34H123.763L125.669 31L123.763 28H124.825Z" fill="white"/>
</svg>
