<svg width="49" height="49" viewBox="0 0 49 49" fill="none" xmlns="http://www.w3.org/2000/svg">
<path d="M33.6917 13.3145C29.9117 13.3145 28.3142 15.1182 25.6817 15.1182C22.9826 15.1182 20.9239 13.3276 17.6483 13.3276C14.442 13.3276 11.0229 15.2851 8.85169 18.6198C5.80294 23.3223 6.32044 32.1788 11.2583 39.7238C13.0245 42.4248 15.3833 45.4538 18.477 45.4866H18.5333C21.222 45.4866 22.0208 43.726 25.7211 43.7054H25.7773C29.4223 43.7054 30.1536 45.4763 32.8311 45.4763H32.8873C35.9811 45.4435 38.4664 42.0873 40.2326 39.3966C41.5039 37.4616 41.9764 36.4904 42.9514 34.3013C35.8086 31.5901 34.6611 21.4641 41.7251 17.582C39.5689 14.882 36.5389 13.3182 33.6823 13.3182L33.6917 13.3145Z" fill="url(#paint0_linear_73_7)"/>
<path d="M32.8596 3.48389C30.6096 3.6367 27.9846 5.0692 26.4471 6.93951C25.0521 8.63451 23.9046 11.1489 24.3546 13.5873H24.5346C26.9308 13.5873 29.3833 12.1445 30.8158 10.2958C32.1958 8.53607 33.2421 6.04232 32.8596 3.48389Z" fill="url(#paint1_linear_73_7)"/>
<defs>
<linearGradient id="paint0_linear_73_7" x1="24.9552" y1="13.3145" x2="24.9552" y2="45.4866" gradientUnits="userSpaceOnUse">
<stop/>
<stop offset="1" stop-opacity="0.34"/>
</linearGradient>
<linearGradient id="paint1_linear_73_7" x1="28.5973" y1="3.48389" x2="28.5973" y2="13.5873" gradientUnits="userSpaceOnUse">
<stop/>
<stop offset="1" stop-opacity="0.34"/>
</linearGradient>
</defs>
</svg>
