<svg width="49" height="49" viewBox="0 0 49 49" fill="none" xmlns="http://www.w3.org/2000/svg">
<path d="M40.3794 24.7207C40.3794 22.5147 38.5854 20.7207 36.3794 20.7207H34.3794V14.7207C34.3794 9.2067 29.8934 4.7207 24.3794 4.7207C18.8654 4.7207 14.3794 9.2067 14.3794 14.7207V20.7207H12.3794C10.1734 20.7207 8.37939 22.5147 8.37939 24.7207V40.7207C8.37939 42.9267 10.1734 44.7207 12.3794 44.7207H36.3794C38.5854 44.7207 40.3794 42.9267 40.3794 40.7207V24.7207ZM18.3794 14.7207C18.3794 11.4127 21.0714 8.7207 24.3794 8.7207C27.6874 8.7207 30.3794 11.4127 30.3794 14.7207V20.7207H18.3794V14.7207Z" fill="white"/>
</svg>
