<svg width="49" height="49" viewBox="0 0 49 49" fill="none" xmlns="http://www.w3.org/2000/svg">
<g clip-path="url(#clip0_70_80)">
<path d="M20.0151 5.00823C18.4755 8.35035 17.9971 12.084 18.6445 15.7064C19.2919 19.3287 21.0339 22.6655 23.6358 25.2675C26.2378 27.8694 29.5747 29.6114 33.197 30.2588C36.8193 30.9062 40.553 30.4278 43.8951 28.8882C41.9071 37.8402 33.9211 44.5322 24.3711 44.5322C13.3251 44.5322 4.37109 35.5782 4.37109 24.5322C4.37109 14.9822 11.0631 6.99623 20.0151 5.00823V5.00823ZM36.6991 5.11423L38.3711 5.53223V7.53223L36.6991 7.95023C35.9959 8.12609 35.3537 8.48973 34.8412 9.00228C34.3286 9.51483 33.965 10.157 33.7891 10.8602L33.3711 12.5322H31.3711L30.9531 10.8602C30.7772 10.157 30.4136 9.51483 29.901 9.00228C29.3885 8.48973 28.7463 8.12609 28.0431 7.95023L26.3711 7.53223V5.53223L28.0431 5.11423C28.7459 4.93804 29.3877 4.57426 29.8999 4.06173C30.4121 3.5492 30.7754 2.90718 30.9511 2.20423L31.3711 0.532227H33.3711L33.7891 2.20423C33.965 2.90742 34.3286 3.54962 34.8412 4.06217C35.3537 4.57472 35.9959 4.93836 36.6991 5.11423V5.11423ZM46.6991 15.1142L48.3711 15.5322V17.5322L46.6991 17.9502C45.9959 18.1261 45.3537 18.4897 44.8412 19.0023C44.3286 19.5148 43.965 20.157 43.7891 20.8602L43.3711 22.5322H41.3711L40.9531 20.8602C40.7772 20.157 40.4136 19.5148 39.901 19.0023C39.3885 18.4897 38.7463 18.1261 38.0431 17.9502L36.3711 17.5322V15.5322L38.0431 15.1142C38.7463 14.9384 39.3885 14.5747 39.901 14.0622C40.4136 13.5496 40.7772 12.9074 40.9531 12.2042L41.3711 10.5322H43.3711L43.7891 12.2042C43.965 12.9074 44.3286 13.5496 44.8412 14.0622C45.3537 14.5747 45.9959 14.9384 46.6991 15.1142Z" fill="black"/>
</g>
<defs>
<clipPath id="clip0_70_80">
<rect width="48" height="48" fill="white" transform="translate(0.371094 0.532227)"/>
</clipPath>
</defs>
</svg>
