<svg width="49" height="49" viewBox="0 0 49 49" fill="none" xmlns="http://www.w3.org/2000/svg">
<g clip-path="url(#clip0_68_23)">
<path d="M23.1882 4.60791C21.7145 5.98115 20.5324 7.63716 19.7126 9.47715C18.8928 11.3171 18.4519 13.3034 18.4164 15.3175C18.3809 17.3315 18.7513 19.3321 19.5058 21.1999C20.2602 23.0676 21.3831 24.7643 22.8075 26.1887C24.2318 27.6131 25.9285 28.7359 27.7963 29.4904C29.664 30.2448 31.6646 30.6153 33.6787 30.5797C35.6927 30.5442 37.679 30.1034 39.519 29.2835C41.359 28.4637 43.015 27.2816 44.3882 25.8079C43.7522 36.2779 35.0602 44.5699 24.4302 44.5699C13.3822 44.5699 4.42822 35.6159 4.42822 24.5699C4.42822 13.9399 12.7202 5.24791 23.1882 4.60791Z" fill="white"/>
</g>
<defs>
<clipPath id="clip0_68_23">
<rect width="48" height="48" fill="white" transform="translate(0.428223 0.569824)"/>
</clipPath>
</defs>
</svg>
