<svg width="49" height="49" viewBox="0 0 49 49" fill="none" xmlns="http://www.w3.org/2000/svg">
<g clip-path="url(#clip0_56_11)">
<path d="M44.6631 32.5225V31.5225C44.6631 28.7625 42.4231 26.5225 39.6631 26.5225C36.9031 26.5225 34.6631 28.7625 34.6631 31.5225V32.5225C33.5631 32.5225 32.6631 33.4225 32.6631 34.5225V42.5225C32.6631 43.6225 33.5631 44.5225 34.6631 44.5225H44.6631C45.7631 44.5225 46.6631 43.6225 46.6631 42.5225V34.5225C46.6631 33.4225 45.7631 32.5225 44.6631 32.5225ZM42.6631 32.5225H36.6631V31.5225C36.6631 29.8625 38.0031 28.5225 39.6631 28.5225C41.3231 28.5225 42.6631 29.8625 42.6631 31.5225V32.5225ZM36.6631 12.1825V23.0425C37.6031 22.7225 38.6031 22.5225 39.6631 22.5225C40.0031 22.5225 40.3231 22.5825 40.6631 22.6225V2.52246L2.66309 40.5225H28.6631V36.5225H12.3231L36.6631 12.1825Z" fill="white"/>
</g>
<defs>
<clipPath id="clip0_56_11">
<rect width="48" height="48" fill="white" transform="translate(0.663086 0.522461)"/>
</clipPath>
</defs>
</svg>
