<svg width="49" height="49" viewBox="0 0 49 49" fill="none" xmlns="http://www.w3.org/2000/svg">
<path d="M24.043 8.74561C24.043 8.74561 36.043 18.7456 36.043 30.7456C36.043 38.7456 30.043 40.7456 24.043 40.7456C18.043 40.7456 12.043 38.7456 12.043 30.7456C12.043 18.7456 24.043 8.74561 24.043 8.74561Z" fill="black" fill-opacity="0.3"/>
<path d="M12.043 30.7456C12.043 18.7456 24.043 8.74561 24.043 8.74561C24.043 8.74561 29.9474 13.666 33.473 20.7456L13.7124 36.7456C12.6664 35.2798 12.043 33.3244 12.043 30.7456Z" fill="white"/>
<path d="M24.043 6.74561C24.043 6.74561 38.043 18.7456 38.043 30.7456C38.043 34.7456 36.043 42.7456 24.043 42.7456" stroke="white" stroke-width="2" stroke-linecap="round"/>
<path d="M24.043 6.74561C24.043 6.74561 10.043 18.7456 10.043 30.7456C10.043 34.7456 12.043 42.7456 24.043 42.7456" stroke="white" stroke-width="2" stroke-linecap="round"/>
</svg>
