<svg width="49" height="49" viewBox="0 0 49 49" fill="none" xmlns="http://www.w3.org/2000/svg">
<g clip-path="url(#clip0_66_5)">
<path d="M38.9571 24.8688L17.7591 39.0008C17.6085 39.101 17.4335 39.1585 17.2529 39.1671C17.0722 39.1757 16.8925 39.1352 16.7331 39.0498C16.5736 38.9645 16.4403 38.8374 16.3473 38.6823C16.2543 38.5271 16.2052 38.3496 16.2051 38.1688V9.90476C16.2052 9.72387 16.2543 9.5464 16.3473 9.39124C16.4403 9.23609 16.5736 9.10905 16.7331 9.02368C16.8925 8.9383 17.0722 8.89777 17.2529 8.90642C17.4335 8.91506 17.6085 8.97255 17.7591 9.07276L38.9571 23.2048C39.094 23.2961 39.2063 23.4198 39.284 23.5649C39.3617 23.7101 39.4023 23.8721 39.4023 24.0368C39.4023 24.2014 39.3617 24.3634 39.284 24.5086C39.2063 24.6537 39.094 24.7774 38.9571 24.8688V24.8688Z" fill="white"/>
</g>
<defs>
<clipPath id="clip0_66_5">
<rect width="48" height="48" fill="white" transform="translate(0.205078 0.0366211)"/>
</clipPath>
</defs>
</svg>
