<svg width="69" height="69" viewBox="0 0 69 69" fill="none" xmlns="http://www.w3.org/2000/svg">
<g clip-path="url(#clip0_68_27)">
<path fill-rule="evenodd" clip-rule="evenodd" d="M44.5506 23.5815C42.1475 21.4053 39.1042 20.0663 35.8763 19.7649C32.6484 19.4635 29.4097 20.216 26.6454 21.9097C23.881 23.6033 21.7398 26.147 20.5424 29.1597C19.345 32.1724 19.1559 35.492 20.0034 38.6212C20.8509 41.7504 22.6893 44.5208 25.2434 46.5174C27.7975 48.5141 30.9298 49.6295 34.171 49.6967C37.4123 49.7639 40.588 48.7791 43.2226 46.8899C45.8573 45.0008 47.8089 42.3089 48.7853 39.2175C48.9168 38.8532 49.1841 38.5539 49.5312 38.3822C49.8783 38.2105 50.2784 38.1797 50.6478 38.2963C51.0171 38.4129 51.327 38.6678 51.5126 39.0077C51.6983 39.3475 51.7453 39.7461 51.6438 40.1198C50.472 43.8296 48.1297 47.0599 44.9679 49.3267C41.8062 51.5936 37.995 52.7751 34.1054 52.6942C30.2158 52.6133 26.4571 51.2744 23.3923 48.878C20.3275 46.4816 18.1216 43.1567 17.1051 39.4014C16.0885 35.6461 16.316 31.6625 17.7535 28.0474C19.191 24.4322 21.761 21.3801 25.0787 19.3482C28.3964 17.3163 32.2831 16.4139 36.1566 16.7764C40.0302 17.1388 43.682 18.7465 46.5652 21.3586L44.5506 23.5815Z" fill="white"/>
<path d="M41.597 26.8404L49.5185 18.1C49.6142 17.9944 49.7381 17.9183 49.8755 17.8806C50.0129 17.8428 50.1583 17.8451 50.2945 17.8869C50.4307 17.9288 50.5522 18.0087 50.6446 18.1171C50.7371 18.2255 50.7968 18.358 50.8167 18.4991L52.102 27.6239C52.1673 28.0879 51.7966 28.4969 51.3284 28.4775L42.1216 28.0932C41.9792 28.0873 41.8415 28.0409 41.7245 27.9595C41.6076 27.8781 41.5162 27.765 41.4612 27.6336C41.4061 27.5021 41.3897 27.3577 41.4137 27.2172C41.4378 27.0768 41.5014 26.9461 41.597 26.8404V26.8404Z" fill="white"/>
<g clip-path="url(#clip1_68_27)">
<path d="M39.7656 31.625L37.375 31.625L37.375 29.2812C37.375 28.5353 37.0194 27.82 36.3865 27.2925C35.7536 26.7651 34.8951 26.4687 34 26.4687C33.1049 26.4687 32.2465 26.7651 31.6135 27.2925C30.9806 27.82 30.625 28.5353 30.625 29.2812L30.625 31.625L28.2344 31.625C28.1225 31.625 28.0152 31.662 27.9361 31.728C27.8569 31.7939 27.8125 31.8833 27.8125 31.9766L27.8125 40.1797C27.8125 40.2729 27.8569 40.3623 27.9361 40.4283C28.0152 40.4942 28.1225 40.5312 28.2344 40.5312L39.7656 40.5312C39.8775 40.5312 39.9848 40.4942 40.0639 40.4283C40.1431 40.3623 40.1875 40.2729 40.1875 40.1797L40.1875 31.9766C40.1875 31.8833 40.1431 31.7939 40.0639 31.728C39.9848 31.662 39.8775 31.625 39.7656 31.625ZM36.0391 31.625L31.9609 31.625L31.9609 29.2593C31.9609 28.8086 32.1758 28.3764 32.5582 28.0577C32.9406 27.7391 33.4592 27.5601 34 27.5601C34.5408 27.5601 35.0594 27.7391 35.4418 28.0577C35.8242 28.3764 36.0391 28.8086 36.0391 29.2593L36.0391 31.625Z" fill="white"/>
</g>
</g>
<defs>
<clipPath id="clip0_68_27">
<rect width="48" height="48" fill="white" transform="translate(32.811 0.795898) rotate(42.1859)"/>
</clipPath>
<clipPath id="clip1_68_27">
<rect width="18" height="15" fill="white" transform="translate(25 26)"/>
</clipPath>
</defs>
</svg>
