<svg width="49" height="49" viewBox="0 0 49 49" fill="none" xmlns="http://www.w3.org/2000/svg">
<g clip-path="url(#clip0_78_28)">
<path d="M40.1714 22.4208C39.6823 18.9012 38.0495 15.6401 35.5247 13.1398C32.9998 10.6395 29.7229 9.03864 26.1987 8.5839C22.6746 8.12917 19.0986 8.84576 16.0218 10.6233C12.9449 12.4008 10.5379 15.1407 9.17139 18.4208M8.17139 10.4208V18.4208H16.1714" stroke="white" stroke-width="2" stroke-linecap="round" stroke-linejoin="round"/>
<path d="M8.17139 26.4209C8.66051 29.9405 10.2932 33.2016 12.8181 35.7019C15.343 38.2022 18.6199 39.8031 22.144 40.2578C25.6682 40.7125 29.2441 39.9959 32.321 38.2184C35.3978 36.4409 37.8049 33.701 39.1714 30.4209M40.1714 38.4209V30.4209H32.1714" stroke="white" stroke-width="2" stroke-linecap="round" stroke-linejoin="round"/>
</g>
<defs>
<clipPath id="clip0_78_28">
<rect width="48" height="48" fill="white" transform="translate(0.171387 0.420898)"/>
</clipPath>
</defs>
</svg>
