<svg width="69" height="68" viewBox="0 0 69 68" fill="none" xmlns="http://www.w3.org/2000/svg">
<g clip-path="url(#clip0_57_41)">
<path d="M45.7497 17.6887C45.7497 16.449 45.4878 15.4195 44.9701 14.63C44.2906 13.5925 43.1908 13.0217 41.8743 13.0217L27.6177 13.0231C25.7436 13.0237 23.7456 14.2461 23.741 17.6886L23.741 17.9538C23.7409 18.0524 23.7603 18.15 23.798 18.2411C23.8357 18.3321 23.8909 18.4149 23.9606 18.4846C24.0303 18.5543 24.1131 18.6095 24.2041 18.6472C24.2952 18.6849 24.3928 18.7043 24.4914 18.7042L44.9966 18.7069C45.0956 18.7073 45.1937 18.6881 45.2853 18.6504C45.3768 18.6127 45.46 18.5572 45.53 18.4872C45.6 18.4172 45.6555 18.334 45.6932 18.2425C45.7309 18.1509 45.7501 18.0528 45.7497 17.9538L45.7497 17.6887Z" fill="white"/>
<path d="M27.5343 27.5618L27.6789 27.7275C28.1197 28.2386 28.4923 29.453 28.4916 30.3805L28.4896 55.414C28.4889 56.8877 29.0935 58.2002 30.19 59.1098C31.1704 59.9218 32.5022 60.3693 33.9387 60.3686L35.5523 60.3686C37.2235 60.368 38.6534 59.7866 39.6285 58.8114C40.0726 58.3655 40.4231 57.8352 40.6594 57.2519C40.8957 56.6686 41.0131 56.044 41.0047 55.4147L41.0074 30.3805C41.0074 29.4431 41.3746 28.2499 41.8228 27.7262C42.894 26.4799 44.4936 24.6204 45.2792 22.1948C45.297 22.1387 45.3014 22.0792 45.292 22.0211C45.2825 21.963 45.2595 21.908 45.2249 21.8604C45.1902 21.8128 45.1449 21.7741 45.0924 21.7473C45.04 21.7205 44.9821 21.7065 44.9232 21.7062L24.5367 21.7069C24.4775 21.7069 24.4192 21.7208 24.3665 21.7475C24.3138 21.7743 24.2682 21.8132 24.2333 21.8609C24.1985 21.9087 24.1755 21.964 24.1661 22.0224C24.1567 22.0808 24.1612 22.1405 24.1793 22.1968C24.8999 24.5243 26.3729 26.2227 27.5343 27.5618ZM36.6083 37.9549C36.6478 38.3401 36.5671 38.728 36.3773 39.0655C36.1875 39.4029 35.8979 39.6733 35.5482 39.8396C35.1985 40.0058 34.806 40.0598 34.4244 39.994C34.0429 39.9282 33.691 39.7459 33.4173 39.4721C33.1435 39.1983 32.9612 38.8465 32.8954 38.4649C32.8296 38.0834 32.8835 37.6908 33.0497 37.3411C33.216 36.9915 33.4864 36.7018 33.8239 36.512C34.1613 36.3222 34.5493 36.2415 34.9344 36.281C35.3634 36.325 35.764 36.5155 36.0689 36.8204C36.3738 37.1253 36.5643 37.526 36.6083 37.9549V37.9549Z" fill="white"/>
</g>
<defs>
<clipPath id="clip0_57_41">
<rect width="48" height="48" fill="white" transform="translate(0.804199 33.9961) rotate(-45)"/>
</clipPath>
</defs>
</svg>
