<svg width="49" height="49" viewBox="0 0 49 49" fill="none" xmlns="http://www.w3.org/2000/svg">
<path d="M43.6517 41.084L40.0797 37.512C40.1697 37.186 40.2317 36.848 40.2317 36.492V22.492H36.2317V33.664L15.0597 12.492H26.2317V8.49198H12.2317C11.8757 8.49198 11.5377 8.55398 11.2117 8.64398L7.65173 5.08398L4.82373 7.91198L40.8237 43.912L43.6517 41.084ZM8.23173 16.734V36.492C8.23173 38.698 10.0257 40.492 12.2317 40.492H31.9897L27.9897 36.492H12.2317V20.734L8.23173 16.734Z" fill="white"/>
<path d="M36.2319 18.4922C39.5456 18.4922 42.2319 15.8059 42.2319 12.4922C42.2319 9.17848 39.5456 6.49219 36.2319 6.49219C32.9182 6.49219 30.2319 9.17848 30.2319 12.4922C30.2319 15.8059 32.9182 18.4922 36.2319 18.4922Z" fill="#F0A5A5"/>
</svg>
