<svg width="49" height="49" viewBox="0 0 49 49" fill="none" xmlns="http://www.w3.org/2000/svg">
<g clip-path="url(#clip0_74_2)">
<path d="M21.4581 9.4841C22.3101 5.9721 27.3061 5.9721 28.1581 9.4841C28.2859 10.0117 28.5365 10.5017 28.8895 10.9141C29.2425 11.3265 29.6879 11.6498 30.1894 11.8576C30.6909 12.0654 31.2344 12.1518 31.7757 12.1098C32.3169 12.0679 32.8406 11.8987 33.3041 11.6161C36.3901 9.7361 39.9241 13.2681 38.0441 16.3561C37.7619 16.8194 37.593 17.3428 37.5511 17.8836C37.5093 18.4245 37.5956 18.9676 37.8032 19.4689C38.0107 19.9701 38.3336 20.4153 38.7456 20.7682C39.1575 21.1212 39.647 21.3719 40.1741 21.5001C43.6861 22.3521 43.6861 27.3481 40.1741 28.2001C39.6465 28.3279 39.1565 28.5785 38.7441 28.9315C38.3317 29.2845 38.0084 29.7299 37.8006 30.2314C37.5928 30.7329 37.5064 31.2764 37.5484 31.8177C37.5903 32.3589 37.7595 32.8826 38.0421 33.3461C39.9221 36.4321 36.3901 39.9661 33.3021 38.0861C32.8388 37.8039 32.3154 37.635 31.7746 37.5931C31.2337 37.5513 30.6906 37.6376 30.1893 37.8452C29.6881 38.0527 29.2429 38.3756 28.89 38.7876C28.5371 39.1995 28.2863 39.689 28.1581 40.2161C27.3061 43.7281 22.3101 43.7281 21.4581 40.2161C21.3303 39.6885 21.0797 39.1985 20.7267 38.7861C20.3737 38.3737 19.9283 38.0504 19.4268 37.8426C18.9253 37.6348 18.3818 37.5484 17.8405 37.5904C17.2993 37.6323 16.7756 37.8015 16.3121 38.0841C13.2261 39.9641 9.69211 36.4321 11.5721 33.3441C11.8543 32.8808 12.0232 32.3574 12.0651 31.8166C12.1069 31.2757 12.0206 30.7326 11.813 30.2313C11.6055 29.7301 11.2826 29.2849 10.8707 28.932C10.4587 28.579 9.96923 28.3283 9.44211 28.2001C5.93011 27.3481 5.93011 22.3521 9.44211 21.5001C9.9697 21.3723 10.4597 21.1217 10.8721 20.7687C11.2845 20.4157 11.6078 19.9703 11.8156 19.4688C12.0234 18.9673 12.1098 18.4238 12.0678 17.8825C12.0259 17.3413 11.8567 16.8176 11.5741 16.3541C9.69411 13.2681 13.2261 9.7341 16.3141 11.6141C18.3141 12.8301 20.9061 11.7541 21.4581 9.4841Z" stroke="white" stroke-width="2" stroke-linecap="round" stroke-linejoin="round"/>
<path d="M20.8081 18.8501V30.8501L30.8081 24.8501L20.8081 18.8501Z" stroke="white" stroke-width="2" stroke-linecap="round" stroke-linejoin="round"/>
</g>
<defs>
<clipPath id="clip0_74_2">
<rect width="48" height="48" fill="white" transform="translate(0.808105 0.850098)"/>
</clipPath>
</defs>
</svg>
