<svg width="49" height="49" viewBox="0 0 49 49" fill="none" xmlns="http://www.w3.org/2000/svg">
<path d="M5.30664 16.8554H14.9066L26.9066 7.25537V40.8554L14.9066 31.2554H5.30664V16.8554ZM35.7626 10.9514C36.0746 11.0714 43.7066 14.2634 43.7066 24.0554C43.7066 33.8474 36.0746 37.0394 35.7626 37.1594C35.6186 37.2314 35.4506 37.2554 35.3066 37.2554C34.8266 37.2554 34.3706 36.9674 34.2026 36.5114C33.9386 35.8874 34.2506 35.1914 34.8506 34.9514C35.1146 34.8314 41.3066 32.1914 41.3066 24.0554C41.3066 15.8714 34.9226 13.1834 34.8506 13.1594C34.2506 12.9194 33.9386 12.2234 34.2026 11.5994C34.4426 10.9994 35.1386 10.6874 35.7626 10.9514V10.9514ZM38.9066 24.0554C38.9066 30.2234 33.5546 32.2874 33.3386 32.3834C33.1946 32.4314 33.0506 32.4554 32.9066 32.4554C32.4266 32.4554 31.9706 32.1674 31.7786 31.6874C31.5386 31.0634 31.8746 30.3674 32.4746 30.1274C32.6426 30.0794 36.5066 28.5194 36.5066 24.0554C36.5066 19.5914 32.6426 18.0314 32.4746 17.9834C31.8746 17.7434 31.5626 17.0474 31.7786 16.4234C32.0186 15.8234 32.7146 15.4874 33.3386 15.7274C33.5546 15.8234 38.9066 17.8874 38.9066 24.0554Z" fill="black"/>
</svg>
