<svg width="48" height="48" viewBox="0 0 48 48" fill="none" xmlns="http://www.w3.org/2000/svg">
<path d="M32.4985 28.5283C30.1646 26.4536 27.1505 25.3076 24.0278 25.3076C20.905 25.3076 17.8909 26.4536 15.557 28.5283C15.3598 28.6989 15.1984 28.9071 15.0823 29.1406C14.9662 29.3741 14.8977 29.6284 14.8807 29.8886C14.8636 30.1489 14.8985 30.4099 14.9832 30.6566C15.0679 30.9032 15.2008 31.1306 15.3741 31.3254C15.5475 31.5203 15.7578 31.6788 15.9929 31.7917C16.228 31.9046 16.4831 31.9697 16.7436 31.9832C17.004 31.9966 17.2646 31.9582 17.51 31.8701C17.7555 31.7821 17.9811 31.6461 18.1735 31.4701C19.7866 30.0365 21.8697 29.2446 24.0278 29.2446C26.1858 29.2446 28.2689 30.0365 29.882 31.4701C30.2723 31.8171 30.7846 31.9948 31.3059 31.9641C31.8273 31.9335 32.3152 31.6969 32.6621 31.3066C33.0091 30.9162 33.1868 30.404 33.1561 29.8826C33.1254 29.3612 32.8889 28.8734 32.4985 28.5264V28.5283Z" fill="white"/>
<path d="M24.0261 17.2217C18.7402 17.2144 13.6506 19.2234 9.79481 22.8392C9.59959 23.0141 9.44125 23.2262 9.32908 23.463C9.21691 23.6999 9.15316 23.9568 9.14157 24.2186C9.12999 24.4804 9.1708 24.742 9.26161 24.9878C9.35242 25.2337 9.4914 25.4589 9.67041 25.6503C9.84942 25.8418 10.0649 25.9955 10.3041 26.1026C10.5433 26.2097 10.8015 26.2679 11.0635 26.2739C11.3255 26.2799 11.5861 26.2335 11.8299 26.1374C12.0738 26.0414 12.296 25.8976 12.4836 25.7145C15.6143 22.7875 19.7402 21.1592 24.0261 21.1592C28.312 21.1592 32.4378 22.7875 35.5686 25.7145C35.7561 25.8976 35.9783 26.0414 36.2222 26.1374C36.466 26.2335 36.7266 26.2799 36.9886 26.2739C37.2507 26.2679 37.5088 26.2097 37.7481 26.1026C37.9873 25.9955 38.2027 25.8418 38.3817 25.6503C38.5607 25.4589 38.6997 25.2337 38.7905 24.9878C38.8813 24.742 38.9221 24.4804 38.9106 24.2186C38.899 23.9568 38.8352 23.6999 38.723 23.463C38.6109 23.2262 38.4525 23.0141 38.2573 22.8392C34.4016 19.2234 29.3119 17.2144 24.0261 17.2217V17.2217Z" fill="white"/>
<path d="M43.3123 16.4871C38.0045 11.7512 31.1396 9.13379 24.0261 9.13379C16.9126 9.13379 10.0477 11.7512 4.73985 16.4871C4.54036 16.6575 4.37695 16.866 4.2592 17.1005C4.14146 17.3349 4.07177 17.5905 4.05422 17.8523C4.03666 18.1141 4.07161 18.3767 4.157 18.6248C4.24239 18.8729 4.3765 19.1014 4.55145 19.2969C4.7264 19.4924 4.93866 19.6509 5.17576 19.7633C5.41286 19.8756 5.67002 19.9394 5.93212 19.9509C6.19423 19.9624 6.45599 19.9214 6.70203 19.8303C6.94807 19.7392 7.17342 19.5999 7.36485 19.4205C11.9508 15.3305 17.8809 13.0703 24.0256 13.0703C30.1704 13.0703 36.1005 15.3305 40.6864 19.4205C41.0757 19.7686 41.5872 19.9478 42.1086 19.9187C42.63 19.8896 43.1185 19.6546 43.4666 19.2653C43.8147 18.8761 43.9939 18.3645 43.9648 17.8431C43.9357 17.3217 43.7007 16.8333 43.3114 16.4852L43.3123 16.4871Z" fill="white"/>
<path d="M24.0264 39.8823C25.6832 39.8823 27.0264 38.5392 27.0264 36.8823C27.0264 35.2255 25.6832 33.8823 24.0264 33.8823C22.3695 33.8823 21.0264 35.2255 21.0264 36.8823C21.0264 38.5392 22.3695 39.8823 24.0264 39.8823Z" fill="white"/>
</svg>
